<svg width="100" height="100" version="1.1" viewBox="0 0 100 100" xmlns="http://www.w3.org/2000/svg">
 <path d="m87.8 56.7 8.53 4.71c0.974 0.538 1.43 1.65 1.09 2.68-2.21 6.83-6 13-10.9 18.1a2.4 2.3 0 0 1-2.97 0.432l-8.52-4.71a38.3 36.7 0 0 1-12.2 6.73v9.42a2.4 2.3 0 0 1-1.88 2.24c-6.99 1.5-14.5 1.58-21.9 0.0013-1.1-0.236-1.88-1.17-1.88-2.25v-9.42a38.3 36.7 0 0 1-12.2-6.73l-8.52 4.71a2.4 2.3 0 0 1-2.97-0.432c-4.95-5.12-8.73-11.3-10.9-18.1-0.334-1.03 0.118-2.14 1.09-2.68l8.53-4.71a38.7 37.1 0 0 1 0-13.4l-8.53-4.71c-0.974-0.538-1.43-1.65-1.09-2.68 2.21-6.83 6-13 10.9-18.1a2.4 2.3 0 0 1 2.97-0.432l8.52 4.71a38.3 36.7 0 0 1 12.2-6.73v-9.42a2.4 2.3 0 0 1 1.88-2.24c6.99-1.5 14.5-1.58 21.9-0.00134 1.1 0.236 1.88 1.17 1.88 2.25v9.42a38.3 36.7 0 0 1 12.2 6.73l8.52-4.71a2.4 2.3 0 0 1 2.97 0.432c4.95 5.12 8.73 11.3 10.9 18.1 0.334 1.03-0.118 2.14-1.09 2.68l-8.53 4.71a38.7 37.1 0 0 1 0 13.4zm-21.8-6.72c0-8.45-7.18-15.3-16-15.3-8.83 0-16 6.87-16 15.3s7.18 15.3 16 15.3c8.83 0 16-6.87 16-15.3z" stroke-width=".196"/>
</svg>
