<svg version="1.1" viewBox="0 0 100 100" xmlns="http://www.w3.org/2000/svg">
 <path d="m83 62v30.4c0 2.82-1.76 5.09-3.96 5.09h-19.1c-1.09 0-1.98-1.15-1.98-2.55v-23.8c0-1.4-0.891-2.55-1.98-2.55h-11.9c-1.09 0-1.98 1.15-1.98 2.55v23.8c0 1.4-0.891 2.55-1.98 2.55h-19.1c-2.19 0-3.96-2.27-3.96-5.09v-30.4c0-0.764 0.264-1.49 0.726-1.97l31-32.9c0.726-0.764 1.78-0.764 2.52 0l31 32.9c0.445 0.488 0.709 1.21 0.709 1.97zm13.8-12.9-13.8-14.6v-29.4c0-1.4-0.891-2.55-1.98-2.55h-9.24c-1.09 0-1.98 1.15-1.98 2.55v15.4l-14.8-15.6c-2.92-3.1-7.14-3.1-10.1 0l-41.7 44.2c-0.841 0.891-0.957 2.5-0.264 3.59l4.21 6.58c0.693 1.08 1.95 1.23 2.79 0.34l38.8-41.1c0.726-0.764 1.78-0.764 2.52 0l38.8 41.1c0.841 0.891 2.09 0.743 2.79-0.34l4.21-6.58c0.693-1.1 0.561-2.7-0.28-3.59z" stroke-width=".187"/>
</svg>
