<svg width="100" height="100" version="1.1" viewBox="0 0 100 100" xmlns="http://www.w3.org/2000/svg">
 <path d="m94.9 28.9-8.55 8.55c-0.872 0.872-2.28 0.872-3.15 0l-20.6-20.6c-0.872-0.872-0.872-2.28 0-3.15l8.55-8.55c3.47-3.47 9.11-3.47 12.6 0l11.2 11.2c3.49 3.47 3.49 9.11 0 12.6zm-39.7-7.85-48.7 48.7-3.93 22.5c-0.538 3.04 2.12 5.68 5.16 5.16l22.5-3.95 48.7-48.7c0.872-0.872 0.872-2.28 0-3.15l-20.6-20.6c-0.891-0.872-2.3-0.872-3.17 0zm-29.7 44.6c-1.02-1.02-1.02-2.65 0-3.67l28.6-28.6c1.02-1.02 2.65-1.02 3.67 0 1.02 1.02 1.02 2.65 0 3.67l-28.6 28.6c-1.02 1.02-2.65 1.02-3.67 0zm-6.7 15.6h8.91v6.74l-12 2.1-5.77-5.77 2.1-12h6.74z" stroke-width=".186"/>
</svg>
