<svg version="1.1" viewBox="0 0 100 100" xmlns="http://www.w3.org/2000/svg">
 <path d="m50 10.2c22 0 39.8 17.8 39.8 39.8 0 22-17.8 39.8-39.8 39.8-22 0-39.8-17.8-39.8-39.8 0-22 17.8-39.8 39.8-39.8m0-7.66c-26.2 0-47.5 21.3-47.5 47.5s21.3 47.5 47.5 47.5 47.5-21.3 47.5-47.5-21.3-47.5-47.5-47.5zm0 10.7c-20.3 0-36.8 16.5-36.8 36.8s16.5 36.8 36.8 36.8 36.8-16.5 36.8-36.8-16.5-36.8-36.8-36.8zm0 8.43c3.81 0 6.9 3.09 6.9 6.9s-3.09 6.9-6.9 6.9-6.9-3.09-6.9-6.9 3.09-6.9 6.9-6.9zm22.6 18.8c-5.5 1.3-10.6 2.44-15.7 3.03 0.163 19.3 2.36 23.6 4.8 29.8 0.693 1.77-0.183 3.77-1.96 4.47-1.77 0.693-3.77-0.183-4.47-1.96-1.67-4.27-3.27-7.78-4.26-15h-1.86c-0.99 7.25-2.59 10.8-4.26 15-0.692 1.77-2.69 2.65-4.47 1.96-1.77-0.693-2.65-2.69-1.96-4.47 2.43-6.23 4.63-10.4 4.8-29.8-5.1-0.586-10.2-1.73-15.7-3.03-1.65-0.389-2.67-2.04-2.28-3.69s2.04-2.67 3.69-2.28c18.5 4.37 23.8 4.36 42.3 0 1.65-0.389 3.3 0.631 3.69 2.28 0.389 1.65-0.631 3.3-2.28 3.69z" stroke-width=".192"/>
</svg>
