<svg width="100" height="100" version="1.1" viewBox="0 0 100 100" xmlns="http://www.w3.org/2000/svg">
 <path d="m96.1 45-17.3-37.4a7.92 11.9 0 0 0-6.5-5.09h-44.5a7.92 11.9 0 0 0-6.5 5.09l-17.3 37.4a7.92 11.9 0 0 0-1.42 6.78v33.9c0 6.56 3.54 11.9 7.92 11.9h79.2c4.37 0 7.92-5.32 7.92-11.9v-33.9c0-2.42-0.495-4.79-1.42-6.78zm-68.3-30.6h44.5l12.9 27.7h-70.2zm61.8 71.2h-79.2v-31.7h79.2zm-5.28-15.8c0 4.37-2.36 7.92-5.28 7.92-2.91 0-5.28-3.54-5.28-7.92 0-4.37 2.36-7.92 5.28-7.92 2.91 0 5.28 3.54 5.28 7.92zm-15.8 0c0 4.37-2.36 7.92-5.28 7.92-2.91 0-5.28-3.54-5.28-7.92 0-4.37 2.36-7.92 5.28-7.92 2.91 0 5.28 3.54 5.28 7.92z" stroke-width=".202"/>
</svg>
