<svg width="100" height="100" version="1.1" viewBox="0 0 100 100" xmlns="http://www.w3.org/2000/svg">
 <path d="m44 26.8-12.8-21.4a5.94 5.94 0 0 0-5.09-2.88h-20.6c-2.4 0-3.81 2.7-2.43 4.67l20.6 29.5c5.51-5.15 12.5-8.69 20.3-9.91zm50.5-24.3h-20.6c-2.09 0-4.02 1.09-5.09 2.88l-12.8 21.4c7.8 1.22 14.8 4.75 20.3 9.9l20.6-29.5c1.38-1.97-0.0297-4.67-2.43-4.67zm-44.5 29.7c-18 0-32.7 14.6-32.7 32.7s14.6 32.7 32.7 32.7c18 0 32.7-14.6 32.7-32.7s-14.6-32.7-32.7-32.7zm17.2 29.2-7.04 6.86 1.66 9.69c0.297 1.74-1.53 3.06-3.09 2.24l-8.7-4.57-8.7 4.57c-1.56 0.826-3.39-0.508-3.09-2.24l1.66-9.69-7.04-6.86c-1.27-1.23-0.566-3.38 1.18-3.63l9.73-1.42 4.35-8.82c0.392-0.794 1.15-1.19 1.91-1.19 0.763 0 1.53 0.397 1.92 1.19l4.35 8.82 9.73 1.42c1.74 0.252 2.44 2.4 1.18 3.63z" stroke-width=".186"/>
</svg>
