<svg width="100" height="100" version="1.1" viewBox="0 0 100 100" xmlns="http://www.w3.org/2000/svg">
 <path d="m58.9 11.4c0 4.92-3.99 8.91-8.91 8.91s-8.91-3.99-8.91-8.91c0-4.92 3.99-8.91 8.91-8.91s8.91 3.99 8.91 8.91zm-8.91 68.3c-4.92 0-8.91 3.99-8.91 8.91s3.99 8.91 8.91 8.91 8.91-3.99 8.91-8.91-3.99-8.91-8.91-8.91zm38.6-38.6c-4.92 0-8.91 3.99-8.91 8.91s3.99 8.91 8.91 8.91 8.91-3.99 8.91-8.91-3.99-8.91-8.91-8.91zm-68.3 8.91c0-4.92-3.99-8.91-8.91-8.91-4.92 0-8.91 3.99-8.91 8.91s3.99 8.91 8.91 8.91c4.92 0 8.91-3.99 8.91-8.91zm2.4 18.4c-4.92 0-8.91 3.99-8.91 8.91 0 4.92 3.99 8.91 8.91 8.91 4.92 0 8.91-3.99 8.91-8.91 0-4.92-3.99-8.91-8.91-8.91zm54.6 0c-4.92 0-8.91 3.99-8.91 8.91 0 4.92 3.99 8.91 8.91 8.91 4.92 0 8.91-3.99 8.91-8.91 0-4.92-3.99-8.91-8.91-8.91zm-54.6-54.6c-4.92 0-8.91 3.99-8.91 8.91 0 4.92 3.99 8.91 8.91 8.91 4.92 0 8.91-3.99 8.91-8.91 0-4.92-3.99-8.91-8.91-8.91z" stroke-width=".186"/>
</svg>
