<svg version="1" xmlns="http://www.w3.org/2000/svg" width="933.333" height="933.333" viewBox="0 0 700.000000 700.000000"><path d="M319.5 18.7c-13.4.9-37.4 4.6-48.1 7.3C171.7 51.5 92.6 116.1 49 207.4c-19.9 41.7-28.1 74.3-31 123.5-1.7 29.2 1.4 71.2 7.1 96C29.3 445 38.3 470.2 48 491c38.6 82.6 108.8 145.6 194.5 174.8 43.2 14.7 55.5 16.7 104.5 16.6 47 0 64.3-2.3 99-13.1 36.2-11.2 68.1-27.3 97.3-49.2 15.5-11.5 22.1-17.3 37.4-32.2 31.4-30.8 55-64.4 72-102.7 20-44.9 29.5-93.4 28-143.7-1.5-52.7-13-97.1-37.1-144-18.5-36-35.3-58.1-67.7-89-37.3-35.6-74.9-58.3-124.4-75.2-24.2-8.2-43.7-12.3-66.8-14.2-11.7-1-53-1.2-65.2-.4zm39 107.3c2.3 1.1 8.7 5.7 14.1 10.2 10.8 9 144.5 141.6 168.5 167.1 25.7 27.4 33.9 39.3 33.9 49.7 0 8.6-3.8 14.1-21.9 31.9-26.3 25.9-32.8 30.9-41.7 31.9-11.9 1.3-22.4-6.7-78.9-60.6-12.1-11.5-22.1-20.9-22.2-20.8-.1.1-.9 30.3-1.8 67.1-2.7 119.7-3.8 146.2-6.7 155.7-.6 2.1-3 5.8-5.2 8.2-3.3 3.6-5.1 4.6-9.6 5.5-8.3 1.7-70.3 2-75.8.3-9.1-2.8-13.7-9.9-16.3-25.3-.9-5.4-1.3-35.3-1.6-112.2l-.4-104.8-33.2 32.7c-51.8 51-55.6 54-68.9 53.2-4.3-.2-9-1.2-11.3-2.3-4.7-2.2-42-39-48.3-47.6-10.2-14.1-9.8-21.3 2.5-37.7 6.4-8.5 137.2-140.5 170.3-171.7 22.1-20.9 30.2-27.7 36.5-30.6 5.3-2.5 12.8-2.4 18 .1z"/></svg>