<svg width="100" height="100" version="1.1" viewBox="0 0 100 100" xmlns="http://www.w3.org/2000/svg">
 <path d="m81.3 22.2-14.7-14.7a8.44 8.44 0 0 0-5.97-2.47h-35.9c-4.66 0-8.44 3.78-8.44 8.44v73.1c0 4.66 3.78 8.44 8.44 8.44h50.6c4.66 0 8.44-3.78 8.44-8.44v-58.4a8.44 8.44 0 0 0-2.47-5.97zm-6.65 5.28h-13.4v-13.4zm-49.9 59.1v-73.1h28.1v18.3c0 2.33 1.89 4.22 4.22 4.22h18.3v50.6zm25.3-13.4c0 1.88-2.27 2.82-3.6 1.49l-6.24-6.32h-4.92c-1.16 0-2.11-0.944-2.11-2.11v-9.84c0-1.16 0.944-2.11 2.11-2.11h4.92l6.24-6.49c1.33-1.33 3.6-0.388 3.6 1.49zm7.24-8.28c1.59-1.63 1.59-4.24 1.74e-4 -5.88-3.89-4 2.15-9.89 6.05-5.89 4.78 4.91 4.78 12.7 1.85e-4 17.6-3.83 3.94-10-1.81-6.05-5.89z" stroke-width=".176"/>
</svg>
