<svg width="70" height="70" version="1.1" viewBox="0 0 70 70" xmlns="http://www.w3.org/2000/svg">
 <path d="m60.7 7.19c-7.34-7.05-18.7-5.99-25.7 2.18-7.02-8.17-18.4-9.24-25.7-2.18-9.55 9.18-8.15 24.2-1.35 32.1l22.3 25.9c1.27 1.48 2.97 2.31 4.77 2.31 1.82 0 3.5-0.812 4.77-2.29l22.3-25.9c6.79-7.93 8.21-22.9-1.35-32.1zm-3 27.2-22.3 25.9c-0.305 0.348-0.559 0.348-0.863 0l-22.3-25.9c-4.63-5.4-5.57-15.6 0.927-21.9 4.94-4.74 12.6-4.03 17.3 1.52l4.44 5.18 4.44-5.18c4.8-5.58 12.4-6.27 17.3-1.54 6.49 6.25 5.52 16.5 0.927 21.9z" stroke-width=".136"/>
</svg>
