<?xml version="1.0" standalone="no"?>
<!DOCTYPE svg PUBLIC "-//W3C//DTD SVG 20010904//EN"
 "http://www.w3.org/TR/2001/REC-SVG-20010904/DTD/svg10.dtd">
<svg version="1.0" xmlns="http://www.w3.org/2000/svg"
 width="3125.000000pt" height="3125.000000pt" viewBox="0 0 3125.000000 3125.000000"
 preserveAspectRatio="xMidYMid meet">
<metadata>
Created by potrace 1.11, written by Peter Selinger 2001-2013
</metadata>
<g transform="translate(0.000000,3125.000000) scale(0.100000,-0.100000)"
fill="#000000" stroke="none">
<path d="M15375 31240 c-637 -49 -1241 -218 -1824 -510 -442 -221 -805 -482
-1146 -824 -293 -294 -494 -573 -679 -943 -227 -456 -307 -832 -307 -1458 0
-409 32 -687 117 -1030 200 -801 646 -1460 1319 -1950 223 -162 535 -336 805
-449 112 -47 450 -173 520 -194 419 -125 556 -147 1050 -173 246 -13 849 -7
1060 11 490 40 882 135 1300 317 236 103 395 190 635 349 446 295 841 686
1134 1122 333 495 545 1051 617 1617 22 173 22 496 0 670 -97 767 -472 1493
-1091 2110 -731 731 -1709 1199 -2755 1320 -158 19 -597 27 -755 15z"/>
<path d="M29245 24114 c-351 -43 -1047 -168 -2650 -475 -3509 -673 -6092
-1057 -8185 -1219 -1015 -78 -1704 -104 -2745 -104 -920 0 -1503 18 -2340 74
-2451 164 -4995 541 -9050 1341 -1618 319 -2031 383 -2465 383 -279 0 -417
-23 -679 -111 -449 -150 -817 -454 -991 -817 -202 -424 -182 -973 51 -1439
176 -350 458 -595 819 -712 560 -181 3158 -710 5505 -1121 1635 -287 2762
-466 3725 -595 545 -72 932 -139 1033 -178 71 -28 81 -138 80 -851 -2 -1142
-56 -3007 -109 -3760 -34 -494 -120 -1461 -190 -2135 -165 -1600 -345 -2879
-520 -3690 -320 -1479 -1013 -3608 -1631 -5005 -52 -118 -173 -375 -268 -571
-329 -676 -335 -696 -335 -1167 0 -408 17 -496 143 -744 296 -584 691 -939
1248 -1122 227 -75 314 -90 534 -90 220 -1 339 15 572 74 350 89 726 266 999
471 503 376 724 774 1489 2679 934 2328 1238 3396 1731 6088 l48 262 547 0
c361 0 566 -4 599 -11 56 -12 111 -53 136 -100 24 -47 51 -181 84 -414 309
-2184 825 -3965 1825 -6300 311 -727 640 -1414 775 -1620 142 -216 345 -442
540 -598 259 -209 617 -403 844 -458 116 -28 419 -43 721 -35 284 7 395 17
546 51 267 59 495 209 840 554 270 270 383 452 471 756 60 209 106 550 94 710
-23 303 -114 544 -561 1480 -173 363 -256 541 -347 745 -749 1677 -1148 3082
-1542 5435 -362 2157 -498 3776 -591 6985 -42 1457 -43 2356 -4 2394 16 16
307 61 749 116 1128 141 2573 377 4865 794 2237 408 4425 830 4675 902 77 22
136 54 227 123 290 219 614 724 674 1051 10 53 14 160 13 365 0 314 -11 411
-61 564 -63 195 -216 415 -398 573 -243 212 -580 372 -955 454 -156 34 -397
41 -585 18z"/>
</g>
</svg>
